<svg viewBox="0 0 128 128" xmlns="http://www.w3.org/2000/svg"><path fill="none" d="M0 0h128v128H0z"/><path clip-rule="evenodd" d="M68.369 128H7.065A7.065 7.065 0 010 120.935V7.065A7.064 7.064 0 017.065 0h113.871A7.064 7.064 0 01128 7.065v113.87a7.065 7.065 0 01-7.064 7.065H88.318V78.431h16.638l2.491-19.318H88.318V46.78c0-5.593 1.553-9.404 9.573-9.404l10.229-.004V20.094c-1.769-.235-7.841-.761-14.906-.761-14.749 0-24.846 9.003-24.846 25.535v14.246h-16.68v19.318h16.681V128z" fill="#4460A0" fill-rule="evenodd"/></svg>