<svg viewBox="0 0 50 50" xmlns="http://www.w3.org/2000/svg"><path d="M45 1H5C2.8 1 1 2.8 1 5v40c0 2.2 1.8 4 4 4h40c2.2 0 4-1.8 4-4V5c0-2.2-1.8-4-4-4z" fill="#E13719"/><path d="M40 23h-4v-4h-2v4h-4v2h4v4h2v-4h4zm-15 4s-2-1.2-2-2c0 0-.5-1.8 1-3s3-3 3-5c0-2.3-1-5-3-6h3l2.4-1H20c-4.2 0-8 3.3-8 7s2.8 6.6 7.1 6.6h.9c-.3.5-.5 1.1-.5 1.7 0 1 .8 2 1.5 2.7h-2c-5.2 0-9 2.6-9 6s4.9 6 10 6c5.9 0 10-3 10-7 0-2.7-2.5-4.3-5-6zm-4-4c-2.4 0-5.6-2.9-6-6-.4-3.1 1.6-6.1 4-6s4.6 2.9 5 6.1c.4 3.1-1 5.9-3 5.9zm-1 15c-3.6 0-7-1.3-7-4s3.4-5 7-5h2c1 0 2.9.9 4 2 1 1 1 2.7 1 3 0 3-2 4-7 4z" fill="#FFF"/></svg>