<svg width="243" height="48" xmlns="http://www.w3.org/2000/svg"><path d="M12.671 23.89C9.731 30.554 4.782 37.953.372 42.363c2.009 1.127 5.586 3.479 7.252 4.851 4.165-5.096 9.555-13.377 13.132-20.727l-8.085-2.597zm13.475 3.038c3.92 6.37 9.555 14.847 11.956 20.041l7.644-4.165c-2.842-5.194-8.869-13.328-12.691-19.208l-6.909 3.332zm-2.401-13.867l5.978-2.205c-1.078-2.646-3.332-6.762-4.9-9.751l-7.546 2.548c1.372 2.94 3.185 6.762 4.116 9.408H1.058v7.448h45.031v-7.448H23.745zM77.4 31.142v-3.381h7.546v3.381H77.4zm-6.762-3.381v3.381h-7.35c.147-1.127.245-2.303.294-3.381h7.056zm3.087-18.277c-.539.98-1.176 1.96-1.764 2.842h-8.722a39.408 39.408 0 002.156-2.842h8.33zM63.631 18.5h7.007v3.332h-7.007V18.5zm21.315 3.332H77.4V18.5h7.546v3.332zm7.056-9.506H79.703a81.047 81.047 0 003.773-5.684l-4.851-3.234-1.127.294h-8.526c.245-.49.539-1.029.784-1.519L62.161.811c-2.205 4.851-6.174 10.241-12.299 14.259 1.617 1.078 3.969 3.577 5.047 5.243.637-.49 1.225-.931 1.813-1.421v6.468c0 5.88-.588 12.887-7.693 17.591 1.421.98 4.067 3.626 5.047 4.998 4.116-2.744 6.517-6.615 7.889-10.731h22.981v2.646c0 .931-.392 1.225-1.47 1.225-1.078 0-5.292.049-8.379-.147 1.029 1.764 2.303 4.851 2.646 6.811 4.851 0 8.33-.098 10.878-1.176 2.499-1.078 3.381-2.94 3.381-6.566V12.326zm31.36 2.352h-4.116v-4.312h4.116v4.312zm11.662 6.517v5.635a3.197 3.197 0 01-.833.098h-2.744c-1.225 0-1.372-.147-1.372-1.96v-3.773h4.949zm-26.607 17.101v-6.223c.784.882 1.47 1.813 1.862 2.45 6.762-2.891 8.624-8.232 8.918-13.328h4.165v3.822c0 6.517 1.176 8.526 6.909 8.526h4.753v4.753h-26.607zm4.459-17.101c-.245 2.695-1.127 5.194-4.459 7.203v-7.203h4.459zm30.821-10.829v-6.86h-44.59v6.86h13.818v4.312h-11.417v32.781h6.909v-2.646h26.607v2.646h7.252V14.678h-12.201v-4.312h13.622zm18.13 1.323c-1.078 1.127-2.303 2.156-3.724 3.136-.833-.686-1.96-1.519-2.989-2.107l1.029-1.029h5.684zm4.067-3.92l-1.029.245h-2.352V6.887h7.693V2.82h-7.693V1.105h-5.929v6.468l-2.891-.539c-1.421 1.96-3.773 4.116-6.958 5.733 1.127.735 2.793 2.499 3.577 3.675.49-.294.931-.588 1.372-.931a39.711 39.711 0 012.254 1.764c-1.96.931-4.018 1.715-6.027 2.254 1.127 1.029 2.646 2.989 3.381 4.263 7.546-2.499 14.896-7.007 18.473-13.965l-3.871-2.058zm-6.37 19.6a56.162 56.162 0 004.851-2.45v1.813h12.152v-1.666c1.617.833 3.332 1.568 5.047 2.303h-22.05zm24.157 11.172c-.539.49-1.078.931-1.617 1.372-1.323-.49-2.695-.931-4.067-1.372h5.684zm-20.286 2.548v-2.548h7.595l-1.666 1.911.49.147-6.419.49zm0-6.958h14.798v.931h-14.798v-.931zm0-3.234h14.798v.833h-14.798v-.833zm3.332-7.399c1.127-.686 2.205-1.47 3.234-2.254 1.127.784 2.352 1.519 3.626 2.254h-6.86zm16.17-16.219a16.407 16.407 0 01-2.401 2.499c-1.862-.931-3.773-1.764-5.488-2.499h7.889zm9.163 9.408c-1.568-1.274-3.773-2.695-6.174-4.067 2.254-2.352 4.018-5.243 5.194-8.673l-3.871-1.568-1.078.196H171.48v4.704h3.185l-3.822 3.724a88.06 88.06 0 014.41 2.107c-.98.441-2.009.833-3.038 1.127.343.343.686.784 1.078 1.225l-3.136-1.617c-4.949 5.537-14.406 9.653-23.03 11.858 1.372 1.372 2.891 3.479 3.626 4.998a93.998 93.998 0 005.88-2.107v11.074c0 1.911-.735 2.695-1.617 3.136.784.931 1.764 3.381 2.009 4.753 1.323-.588 3.381-.98 15.19-2.107-.098-1.029-.049-2.695.049-4.116 5.831 1.862 12.495 4.557 16.023 6.664l3.332-4.018c-1.225-.686-2.793-1.421-4.508-2.107a243.044 243.044 0 004.312-3.185l-4.851-3.038a26.691 26.691 0 01-1.666 1.715v-8.673c1.862.686 3.675 1.225 5.39 1.715.833-1.47 2.597-3.822 3.871-4.998-6.958-1.47-15.288-4.312-20.433-7.301.245-.294.539-.588.833-.882.441.686.833 1.323 1.078 1.862a33.395 33.395 0 005.488-2.646c2.695 1.617 5.047 3.234 6.615 4.606l4.312-4.361zm20.335 9.065v-1.274h2.548v1.176l-2.548.098zm2.548-10.241v1.127h-2.548v-1.127h2.548zm-2.548 4.41h2.548v1.274h-2.548v-1.274zm7.693-4.41h1.568v-4.263h-15.484v4.263h1.372v10.437l-2.009.049.343 4.753c2.744-.196 5.831-.392 9.065-.588v4.41l-2.107-3.969c-2.107.539-5.243.931-7.987 1.078.49-4.508.588-8.918.588-12.495V9.582h36.652v-5.39h-17.934c-.637-1.323-1.568-2.744-2.499-3.871l-6.125 2.352c.343.49.686.98.98 1.519h-17.444v15.043c0 7.252-.196 17.64-3.381 24.647 1.421.637 4.263 2.695 5.39 3.871 1.96-4.067 3.038-9.457 3.675-14.798.294.882.539 1.862.637 2.548.735.049 1.568.049 2.401.049v1.274h-2.254v3.626h2.254v1.666l-3.675.196.441 4.263c3.038-.245 6.321-.539 9.751-.882l-.098-3.969-2.156.147v-1.421h2.107v-3.626h-2.107v-1.617a23.942 23.942 0 002.891-.441v12.838h5.145v-2.891l3.332 1.519c1.372-2.107 1.911-5.439 2.205-8.575l-4.361-1.225c-.147 2.009-.539 4.067-1.176 5.831V15.511zm15.582 6.419h1.323v2.401h-1.323V21.93zm-3.479 2.401h-1.274V21.93h1.274v2.401zm-4.753 0h-1.225V21.93h1.225v2.401zm14.014-7.595v-4.704h-7.056v-1.764h-5.929v1.764h-6.468v4.704h6.468v1.421h-6.272v9.996h19.012v-9.996h-6.811v-1.421h7.056zm-10.241 26.313c-.588 0-.686-.098-.686-1.127v-3.969c.588.784 1.078 1.568 1.372 2.205l3.626-2.156a39.193 39.193 0 011.519 3.577c-1.274-.343-2.891-.98-3.626-1.617-.098 2.744-.294 3.087-.931 3.087h-1.274zm11.515.784c-.343-2.352-1.813-5.831-3.381-8.477l-4.018 1.421c-.588-.882-1.47-1.911-2.352-2.842h9.555v-4.606h-21.217v4.606h7.889l-1.421.833a15.767 15.767 0 011.715 1.862h-3.822v5.292c0 4.116.784 5.439 4.704 5.439h2.744c2.548 0 3.773-.98 4.361-4.459.294.98.49 1.862.588 2.646l4.655-1.715z" fill="#3D1101" fill-rule="evenodd"/></svg>