<svg width="120" height="24" xmlns="http://www.w3.org/2000/svg"><path d="M6.696 11.64c-1.44 3.264-3.864 6.888-6.024 9.048.984.552 2.736 1.704 3.552 2.376 2.04-2.496 4.68-6.552 6.432-10.152l-3.96-1.272zm6.6 1.488c1.92 3.12 4.68 7.272 5.856 9.816l3.744-2.04c-1.392-2.544-4.344-6.528-6.216-9.408l-3.384 1.632zM12.12 6.336l2.928-1.08c-.528-1.296-1.632-3.312-2.4-4.776L8.952 1.728c.672 1.44 1.56 3.312 2.016 4.608h-9.96v3.648h22.056V6.336H12.12zm26.28 8.856v-1.656h3.696v1.656H38.4zm-3.312-1.656v1.656h-3.6c.072-.552.12-1.128.144-1.656h3.456zM36.6 4.584c-.264.48-.576.96-.864 1.392h-4.272c.384-.456.72-.912 1.056-1.392h4.08zM31.656 9h3.432v1.632h-3.432V9zm10.44 1.632H38.4V9h3.696v1.632zm3.456-4.656h-6.024a39.696 39.696 0 001.848-2.784L39 1.608l-.552.144h-4.176c.12-.24.264-.504.384-.744l-3.72-.672c-1.08 2.376-3.024 5.016-6.024 6.984.792.528 1.944 1.752 2.472 2.568.312-.24.6-.456.888-.696v3.168c0 2.88-.288 6.312-3.768 8.616.696.48 1.992 1.776 2.472 2.448 2.016-1.344 3.192-3.24 3.864-5.256h11.256v1.296c0 .456-.192.6-.72.6s-2.592.024-4.104-.072c.504.864 1.128 2.376 1.296 3.336 2.376 0 4.08-.048 5.328-.576 1.224-.528 1.656-1.44 1.656-3.216V5.976zm15.36 1.152h-2.016V5.016h2.016v2.112zm5.712 3.192v2.76a1.566 1.566 0 01-.408.048h-1.344c-.6 0-.672-.072-.672-.96V10.32h2.424zm-13.032 8.376v-3.048c.384.432.72.888.912 1.2 3.312-1.416 4.224-4.032 4.368-6.528h2.04v1.872c0 3.192.576 4.176 3.384 4.176h2.328v2.328H53.592zm2.184-8.376c-.12 1.32-.552 2.544-2.184 3.528V10.32h2.184zm15.096-5.304v-3.36h-21.84v3.36H55.8v2.112h-5.592v16.056h3.384v-1.296h13.032v1.296h3.552V7.128H64.2V5.016h6.672zm8.88.648A11.63 11.63 0 0177.928 7.2c-.408-.336-.96-.744-1.464-1.032l.504-.504h2.784zm1.992-1.92l-.504.12h-1.152v-.552h3.768V1.32h-3.768V.48h-2.904v3.168l-1.416-.264c-.696.96-1.848 2.016-3.408 2.808.552.36 1.368 1.224 1.752 1.8a6.6 6.6 0 00.672-.456c.36.264.768.576 1.104.864-.96.456-1.968.84-2.952 1.104.552.504 1.296 1.464 1.656 2.088 3.696-1.224 7.296-3.432 9.048-6.84l-1.896-1.008zm-3.12 9.6c.816-.36 1.608-.768 2.376-1.2v.888h5.952v-.816c.792.408 1.632.768 2.472 1.128h-10.8zm11.832 5.472c-.264.24-.528.456-.792.672-.648-.24-1.32-.456-1.992-.672h2.784zm-9.936 1.248v-1.248h3.72l-.816.936.24.072-3.144.24zm0-3.408h7.248v.456H80.52v-.456zm0-1.584h7.248v.408H80.52v-.408zm1.632-3.624c.552-.336 1.08-.72 1.584-1.104.552.384 1.152.744 1.776 1.104h-3.36zm7.92-7.944c-.336.432-.72.84-1.176 1.224a50.519 50.519 0 00-2.688-1.224h3.864zm4.488 4.608c-.768-.624-1.848-1.32-3.024-1.992 1.104-1.152 1.968-2.568 2.544-4.248l-1.896-.768-.528.096H84.48v2.304h1.56l-1.872 1.824c.696.312 1.416.648 2.16 1.032-.48.216-.984.408-1.488.552.168.168.336.384.528.6l-1.536-.792c-2.424 2.712-7.056 4.728-11.28 5.808.672.672 1.416 1.704 1.776 2.448a46.04 46.04 0 002.88-1.032v5.424c0 .936-.36 1.32-.792 1.536.384.456.864 1.656.984 2.328.648-.288 1.656-.48 7.44-1.032-.048-.504-.024-1.32.024-2.016 2.856.912 6.12 2.232 7.848 3.264l1.632-1.968c-.6-.336-1.368-.696-2.208-1.032.696-.504 1.416-1.032 2.112-1.56L91.872 17.4c-.24.264-.504.552-.816.84v-4.248c.912.336 1.8.6 2.64.84.408-.72 1.272-1.872 1.896-2.448-3.408-.72-7.488-2.112-10.008-3.576.12-.144.264-.288.408-.432.216.336.408.648.528.912.96-.36 1.848-.792 2.688-1.296 1.32.792 2.472 1.584 3.24 2.256l2.112-2.136zm9.96 4.44v-.624h1.248v.576l-1.248.048zm1.248-5.016v.552h-1.248v-.552h1.248zm-1.248 2.16h1.248v.624h-1.248v-.624zm3.768-2.16h.768V5.448h-7.584v2.088h.672v5.112l-.984.024.168 2.328c1.344-.096 2.856-.192 4.44-.288v2.16l-1.032-1.944c-1.032.264-2.568.456-3.912.528.24-2.208.288-4.368.288-6.12V4.632h17.952v-2.64h-8.784a9.843 9.843 0 00-1.224-1.896l-3 1.152c.168.24.336.48.48.744h-8.544V9.36c0 3.552-.096 8.64-1.656 12.072.696.312 2.088 1.32 2.64 1.896.96-1.992 1.488-4.632 1.8-7.248.144.432.264.912.312 1.248.36.024.768.024 1.176.024v.624h-1.104v1.776h1.104v.816l-1.8.096.216 2.088a251.03 251.03 0 004.776-.432l-.048-1.944-1.056.072v-.696h1.032v-1.776h-1.032v-.792c.504-.048.984-.12 1.416-.216v6.288h2.52V21.84l1.632.744c.672-1.032.936-2.664 1.08-4.2l-2.136-.6c-.072.984-.264 1.992-.576 2.856V7.536zm7.632 3.144h.648v1.176h-.648V10.68zm-1.704 1.176h-.624V10.68h.624v1.176zm-2.328 0h-.6V10.68h.6v1.176zm6.864-3.72V5.832h-3.456v-.864h-2.904v.864h-3.168v2.304h3.168v.696h-3.072v4.896h9.312V8.832h-3.336v-.696h3.456zm-5.016 12.888c-.288 0-.336-.048-.336-.552v-1.944c.288.384.528.768.672 1.08l1.776-1.056c.264.552.528 1.152.744 1.752-.624-.168-1.416-.48-1.776-.792-.048 1.344-.144 1.512-.456 1.512h-.624zm5.64.384c-.168-1.152-.888-2.856-1.656-4.152l-1.968.696c-.288-.432-.72-.936-1.152-1.392h4.68v-2.256h-10.392v2.256h3.864l-.696.408c.288.264.576.576.84.912h-1.872v2.592c0 2.016.384 2.664 2.304 2.664h1.344c1.248 0 1.848-.48 2.136-2.184.144.48.24.912.288 1.296l2.28-.84z" fill="#FFF" fill-rule="evenodd"/></svg>